<svg width="37" height="41" viewBox="0 0 37 41" fill="none" xmlns="http://www.w3.org/2000/svg">
<path d="M5.28836 0C13.8033 0 22.3183 0 30.8333 0C30.8803 0.0213542 30.9262 0.0533854 30.9764 0.0619271C34.1624 0.612865 36.1932 3.02268 36.1953 6.26211C36.1974 9.3307 36.1964 12.3993 36.1953 15.4679C36.1953 16.432 35.7362 16.8965 34.7806 16.8965C32.1658 16.8976 29.551 16.8965 26.9361 16.8965C26.7963 16.8965 26.6575 16.8965 26.5326 16.8965C26.5326 17.7848 26.5326 18.607 26.5326 19.4195C26.9799 19.5006 27.4027 19.5572 27.817 19.6544C32.5277 20.7563 35.9658 24.8669 36.1889 29.6577C36.4153 34.5041 33.4086 38.9094 28.795 40.432C27.9793 40.701 27.1134 40.8153 26.2699 41C25.656 41 25.042 41 24.4281 41C24.3544 40.9765 24.2818 40.9477 24.2071 40.9295C23.2696 40.6946 22.2948 40.5569 21.4054 40.2035C20.4178 39.8106 19.5092 39.2223 18.4906 38.6777C18.0923 39.0867 17.6375 39.5906 17.141 40.0508C16.7684 40.3967 16.3423 40.6861 15.9398 41C15.8064 41 15.6729 41 15.5394 41C15.2084 40.7672 14.8486 40.5654 14.5529 40.2942C14.1268 39.9024 13.7467 39.4604 13.2908 38.981C12.963 39.3397 12.7153 39.6365 12.4409 39.9045C12.0192 40.3177 11.6583 40.8142 11.0551 40.9989C10.9216 40.9989 10.7881 40.9989 10.6547 40.9989C9.91154 40.3882 9.16948 39.7785 8.38471 39.1336C8.11565 39.4155 7.81776 39.738 7.50813 40.0497C7.13549 40.4256 6.79596 40.8495 6.25143 40.9989C6.14466 40.9989 6.03789 40.9989 5.93112 40.9989C5.59693 40.7715 5.23391 40.5761 4.93495 40.3103C4.48331 39.9077 4.07544 39.455 3.6537 39.0301C3.3793 39.2906 3.1476 39.5255 2.90096 39.7422C2.42049 40.1661 1.93148 40.5804 1.44674 40.9989C1.31328 40.9989 1.17982 40.9989 1.04635 40.9989C0.38224 40.7833 0 40.3775 0 39.6312C0.00640625 28.4203 0.00106771 17.2093 0.00747396 5.99945C0.00960938 3.25758 1.84286 0.902214 4.48331 0.197526C4.75023 0.12599 5.02036 0.0651302 5.28836 0ZM25.3154 2.41836C25.1477 2.41089 25.058 2.40341 24.9684 2.40341C18.6699 2.40341 12.3705 2.39807 6.07206 2.40555C3.95906 2.40768 2.40982 3.98896 2.40875 6.12865C2.40555 16.2046 2.40661 26.2795 2.40768 36.3555C2.40768 36.4665 2.42263 36.5776 2.43224 36.7185C2.50057 36.6694 2.53581 36.6512 2.5625 36.6256C3.33232 35.8857 3.89714 35.891 4.65521 36.6502C5.12393 37.1189 5.59159 37.5908 6.04643 38.0489C6.1137 38.019 6.14359 38.0147 6.16068 37.9976C6.57815 37.5844 6.99349 37.1701 7.4099 36.7559C8.16797 35.9989 8.76482 35.9999 9.5325 36.7591C9.97453 37.1958 10.4166 37.6324 10.9088 38.1204C11.3946 37.6132 11.8409 37.136 12.3 36.6736C12.9695 35.9999 13.6154 35.9967 14.2806 36.664C14.7504 37.1349 15.2063 37.6175 15.6718 38.099C16.1074 37.6549 16.4886 37.2673 16.8677 36.8808C14.46 33.5517 13.8247 29.9247 15.4102 26.0873C16.9979 22.2425 20.0142 20.1028 24.1014 19.427C24.1014 19.2412 24.1014 19.0821 24.1014 18.923C24.1014 14.8529 24.1217 10.7828 24.0907 6.71268C24.079 5.17198 24.3352 3.74018 25.3154 2.41836ZM16.9798 30.1574C16.9712 34.7977 20.7189 38.5795 25.3442 38.5977C29.993 38.6158 33.7898 34.8436 33.7951 30.2012C33.8004 25.5716 30.0346 21.7919 25.4083 21.7823C20.7744 21.7727 16.9894 25.5353 16.9798 30.1574ZM33.7834 14.4771C33.7834 11.5526 33.8346 8.67193 33.7652 5.79445C33.7204 3.92596 32.1039 2.44932 30.2578 2.40661C28.2035 2.35857 26.524 3.95372 26.5101 6.00906C26.492 8.7424 26.5048 11.4768 26.5059 14.2101C26.5059 14.2977 26.5251 14.3863 26.5358 14.4781C28.9563 14.4771 31.3511 14.4771 33.7834 14.4771Z" fill="white"/>
<path d="M12.095 12.0907C11.2654 12.0907 10.4817 12.1046 9.698 12.0865C9.04242 12.0715 8.53206 11.5419 8.52138 10.9077C8.50964 10.2628 9.03388 9.71295 9.70547 9.69479C10.3311 9.67878 10.959 9.69052 11.5857 9.69052C11.7427 9.69052 11.8985 9.69052 12.0961 9.69052C12.0961 8.92498 12.0939 8.19573 12.0961 7.46649C12.0982 6.66891 12.6022 6.10943 13.3068 6.11797C13.9998 6.12651 14.492 6.67425 14.4963 7.4494C14.5005 8.15623 14.5005 8.86198 14.5027 9.5688C14.5027 9.59336 14.5176 9.61685 14.5411 9.69052C15.2939 9.69052 16.0626 9.68198 16.8303 9.69266C17.6695 9.70547 18.229 10.4294 18.0186 11.2099C17.8777 11.7341 17.4143 12.0843 16.8249 12.0907C16.0669 12.0982 15.3088 12.0929 14.4963 12.0929C14.4963 12.884 14.5027 13.6517 14.4941 14.4194C14.4877 14.996 14.1589 15.4487 13.6539 15.6056C12.8851 15.8448 12.1238 15.2939 12.0971 14.4707C12.0843 14.0841 12.0939 13.6976 12.0939 13.3111C12.0939 12.9235 12.095 12.5381 12.095 12.0907Z" fill="white"/>
<path d="M10.9333 20.5032C9.37341 20.5032 7.81456 20.5053 6.25464 20.5021C5.43677 20.5011 4.89544 20.027 4.88797 19.3138C4.88049 18.5877 5.4325 18.1009 6.27065 18.1009C9.40331 18.0998 12.5349 18.0976 15.6676 18.1019C16.6125 18.103 17.2125 18.9155 16.8901 19.7387C16.7011 20.2192 16.2729 20.5 15.691 20.5011C14.1055 20.5053 12.5199 20.5021 10.9333 20.5032Z" fill="white"/>
<path d="M8.47333 25.3068C7.70031 25.3068 6.92729 25.3122 6.15427 25.3047C5.41115 25.2983 4.8837 24.7911 4.8869 24.1003C4.88904 23.4148 5.42289 22.9087 6.16708 22.9066C7.71312 22.9013 9.26023 22.9013 10.8063 22.9066C11.5547 22.9087 12.0875 23.4074 12.0961 24.0928C12.1035 24.7954 11.5665 25.3004 10.7945 25.3057C10.0194 25.3111 9.24635 25.3079 8.47333 25.3068Z" fill="white"/>
<path d="M8.47226 27.7049C9.24529 27.7049 10.0194 27.7006 10.7924 27.706C11.5654 27.7102 12.1035 28.2163 12.0939 28.9189C12.0854 29.6054 11.5526 30.103 10.8031 30.1051C9.25596 30.1105 7.70885 30.1105 6.16174 30.1051C5.41648 30.103 4.88583 29.598 4.8837 28.9093C4.88049 28.2163 5.40581 27.7124 6.15107 27.706C6.92516 27.6996 7.69924 27.7049 8.47226 27.7049Z" fill="white"/>
<path d="M28.5964 32.2106C28.542 33.1577 27.9579 34.0823 26.8539 34.6674C26.6479 34.7763 26.5379 34.8852 26.5059 35.134C26.4343 35.6913 25.9603 36.0939 25.4115 36.1227C24.8349 36.1526 24.3192 35.8013 24.1943 35.2354C24.1355 34.9696 24.0117 34.8767 23.7693 34.7977C23.418 34.6824 23.0732 34.5233 22.755 34.3343C22.1656 33.983 21.9959 33.2676 22.3322 32.6975C22.6568 32.1455 23.3262 31.9757 23.9391 32.2501C24.2989 32.4113 24.6811 32.532 25.0645 32.627C25.2353 32.6697 25.4745 32.6676 25.6079 32.5768C25.8332 32.4231 26.0649 32.2106 26.1727 31.9693C26.2987 31.6864 26.0617 31.4547 25.8204 31.3276C25.4211 31.1162 24.9972 30.9529 24.5904 30.7553C24.2562 30.593 23.9092 30.4414 23.606 30.2311C21.8827 29.0299 21.9969 26.587 23.8238 25.5428C24.0256 25.4275 24.1334 25.3025 24.1793 25.0687C24.2904 24.5103 24.7655 24.1291 25.3111 24.1142C25.8524 24.1003 26.3639 24.4644 26.4856 25.0153C26.5379 25.2524 26.6575 25.3303 26.8507 25.4232C27.1251 25.5535 27.3953 25.7125 27.628 25.9058C28.1384 26.3297 28.211 27.0525 27.8245 27.5565C27.4326 28.0679 26.7568 28.1437 26.1695 27.8138C25.8973 27.66 25.5556 27.5874 25.2406 27.5704C25.1018 27.5629 24.8829 27.7604 24.8296 27.911C24.7943 28.0113 24.9523 28.2526 25.0826 28.3263C25.4296 28.5206 25.8065 28.6626 26.1749 28.8174C26.8326 29.095 27.4476 29.4335 27.912 29.9951C28.3711 30.5461 28.6156 31.1803 28.5964 32.2106Z" fill="white"/>
</svg>
