<svg width="41" height="41" viewBox="0 0 41 41" fill="none" xmlns="http://www.w3.org/2000/svg">
<path d="M29.5028 5.78913L30.0845 7.55429C30.2582 8.10787 30.6159 8.58569 31.0991 8.90712L32.6078 9.88115C33.6256 10.5651 34.0288 11.8666 33.5753 13.0062L33.0071 14.4202C32.7539 15.0446 32.7539 15.7438 33.0071 16.3682L33.5688 17.721C34.0282 18.8358 33.6581 20.1199 32.676 20.819L31.3432 21.7795C30.8648 22.1237 30.5163 22.6194 30.3556 23.1865L29.9021 24.8369C29.5639 26.0285 28.4313 26.8158 27.1965 26.7173L25.776 26.5956C25.1083 26.5415 24.4454 26.7449 23.9226 27.1638L22.5698 28.2666C21.6158 29.0469 20.2435 29.0469 19.2889 28.2666L18.092 27.3261C17.6255 26.9414 17.0395 26.7309 16.4345 26.7309H14.3441C13.1293 26.7314 12.0773 25.8872 11.8143 24.7016L11.4426 23.1118C11.297 22.4743 10.915 21.9159 10.3738 21.549L9.13572 20.6897C8.15519 20.0219 7.75151 18.7752 8.15519 17.6594L8.73691 16.063C8.95011 15.4824 8.95011 14.8444 8.73691 14.2638L8.21634 12.8704C7.79047 11.7259 8.21472 10.4391 9.23799 9.77239L10.5908 8.88602C11.1211 8.54023 11.508 8.01371 11.6801 7.4044L12.093 5.92982C12.4307 4.73717 13.5627 3.94766 14.7986 4.0429L16.1044 4.15816C16.7721 4.21228 17.435 4.00881 17.9578 3.58998L19.1959 2.58888C20.1537 1.80371 21.5325 1.80371 22.4897 2.58888L23.6126 3.52233C24.131 3.95632 24.7987 4.17007 25.473 4.11758L26.8258 4.01639C28.019 3.91844 29.1256 4.65113 29.5028 5.78913Z" stroke="white" stroke-width="2"/>
<path d="M28.9481 26.3586L33.683 34.6178C33.8048 34.8278 33.683 35.0507 33.5272 34.9901L27.703 32.6227C27.6175 32.5956 27.526 32.6427 27.499 32.7277C27.4963 32.7353 27.4946 32.7434 27.4936 32.7509L26.7766 38.8387C26.736 39.0351 26.4925 39.008 26.3707 38.7981L20.8717 28.8478" stroke="white" stroke-width="2" stroke-linecap="round"/>
<path d="M20.8717 28.8478L15.7916 38.8251C15.6628 39.0351 15.4328 39.0621 15.3858 38.8728L14.5265 32.6498C14.5086 32.5621 14.4226 32.5053 14.3349 32.5231C14.3289 32.5242 14.3224 32.5258 14.3165 32.528L8.65573 34.9696C8.46634 35.0237 8.3646 34.8072 8.49339 34.5908L13.2283 26.3586" stroke="white" stroke-width="2" stroke-linecap="round"/>
<path d="M20.9324 9.6647L22.7587 13.3785C22.77 13.398 22.7901 13.4109 22.8128 13.412L26.8713 14.0073C26.9254 14.0073 26.9524 14.0884 26.9118 14.1225L23.9492 17.0105C23.9383 17.0295 23.9383 17.0528 23.9492 17.0717L24.6256 21.1302C24.6326 21.167 24.6088 21.2021 24.572 21.2097C24.5579 21.2124 24.5439 21.2108 24.5309 21.2048L20.8647 19.2768C20.8469 19.2622 20.8214 19.2622 20.8036 19.2768L17.178 21.2384C17.1396 21.2535 17.0968 21.2346 17.0817 21.1962C17.0779 21.1859 17.0757 21.1751 17.0768 21.1637L17.7532 17.1052C17.763 17.0863 17.763 17.0636 17.7532 17.0441L14.784 14.1555C14.7602 14.122 14.7678 14.0755 14.8014 14.0516C14.8084 14.0468 14.8165 14.043 14.8246 14.0403L18.9172 13.445C18.9399 13.445 18.961 13.4321 18.9713 13.4115L20.8047 9.69771C20.8019 9.66037 20.8301 9.62791 20.8674 9.62574C20.8945 9.62466 20.9205 9.63981 20.9324 9.6647Z" stroke="white" stroke-width="2" stroke-linecap="round"/>
</svg>
