<svg width="39" height="41" viewBox="0 0 39 41" fill="none" xmlns="http://www.w3.org/2000/svg">
<rect x="22.1295" y="5.39019" width="16.4091" height="3.15657" rx="1.57828" transform="rotate(42.3617 22.1295 5.39019)" stroke="white" stroke-width="1.5"/>
<path d="M22.9521 10.5182L9.2786 25.5128L11.2225 29.5273L15.0928 30.8148L28.4873 16.1262L28.7664 15.8202" stroke="white" stroke-width="1.5"/>
<path d="M29.6487 12.7014L34.6716 7.19323L34.9507 6.88721" stroke="white" stroke-width="1.5"/>
<path d="M5.64147 35.6476L10.6644 30.1394L10.9435 29.8334" stroke="white" stroke-width="1.5"/>
<path d="M14.4316 26.0082L17.0327 28.3802L17.3387 28.6592" stroke="white" stroke-width="1.5"/>
<path d="M17.5821 24.3973L19.2651 25.9321L19.5711 26.2111" stroke="white" stroke-width="1.5"/>
<path d="M18.8964 21.112L21.4975 23.484L21.8036 23.763" stroke="white" stroke-width="1.5"/>
<path d="M18.0687 15.8734L23.73 21.0359L24.036 21.3149" stroke="white" stroke-width="1.5"/>
<path d="M23.3613 16.2158L25.9624 18.5878L26.2684 18.8668" stroke="white" stroke-width="1.5"/>
<path d="M25.9766 9.35281L30.9995 3.8446L31.2785 3.53859" stroke="white" stroke-width="1.5"/>
<path d="M29.0374 2.61583L36.0756 9.03402" stroke="white" stroke-width="2" stroke-linecap="round" stroke-linejoin="round"/>
</svg>
