<svg width="45" height="41" viewBox="0 0 45 41" fill="none" xmlns="http://www.w3.org/2000/svg">
<path d="M19.0836 31.8682C17.5182 31.8682 16.0086 31.6259 14.5736 31.1414C13.1386 30.6568 12.0018 30.0418 11.1818 29.2777L12.2814 26.9855C13.0641 27.675 14.0705 28.2527 15.2818 28.7C16.4932 29.1473 17.7605 29.3709 19.0836 29.3709C20.2764 29.3709 21.2641 29.2405 22.0095 28.9609C22.755 28.6814 23.3141 28.3086 23.6682 27.8241C24.0223 27.3395 24.19 26.7991 24.19 26.1841C24.19 25.4759 23.9664 24.8982 23.5005 24.4695C23.0345 24.0409 22.4382 23.6868 21.7114 23.4259C20.9659 23.165 20.1645 22.9227 19.2886 22.7364C18.4127 22.5314 17.5182 22.3077 16.6236 22.0468C15.7291 21.7859 14.9091 21.4505 14.1823 21.0218C13.4368 20.6118 12.8591 20.0527 12.3932 19.3632C11.9273 18.6736 11.7223 17.7605 11.7223 16.6609C11.7223 15.5986 12.0018 14.6295 12.5609 13.735C13.12 12.8405 13.9773 12.1323 15.1514 11.5918C16.3255 11.0514 17.8164 10.7905 19.6241 10.7905C20.8168 10.7905 22.0095 10.9395 23.1836 11.2564C24.3577 11.5732 25.3827 12.0205 26.24 12.6168L25.2709 14.9836C24.395 14.3873 23.4445 13.9586 22.4755 13.6977C21.4877 13.4368 20.5373 13.3064 19.6241 13.3064C18.4686 13.3064 17.5182 13.4555 16.7727 13.7536C16.0273 14.0518 15.4868 14.4432 15.1327 14.9277C14.7973 15.4123 14.6109 15.9714 14.6109 16.5864C14.6109 17.3132 14.8345 17.8909 15.3005 18.3195C15.7664 18.7482 16.3627 19.1023 17.1082 19.3445C17.8536 19.6055 18.655 19.8291 19.5309 20.0341C20.4068 20.2391 21.3014 20.4627 22.1959 20.7236C23.0905 20.9845 23.9105 21.32 24.6373 21.73C25.3827 22.14 25.9605 22.6991 26.4264 23.3886C26.8736 24.0782 27.0973 24.9541 27.0973 26.035C27.0973 27.0786 26.8177 28.0477 26.24 28.9423C25.6623 29.8368 24.7864 30.545 23.5936 31.0855C22.3823 31.5886 20.8914 31.8682 19.0836 31.8682ZM18.3382 35.1668V7.45454H20.2205V35.1668H18.3382Z" fill="white"/>
<path fill-rule="evenodd" clip-rule="evenodd" d="M38.9342 18.9291C38.9778 19.4469 39 19.9709 39 20.5C39 30.7173 30.7173 39 20.5 39C10.2827 39 2 30.7173 2 20.5C2 10.2827 10.2827 2 20.5 2C24.3294 2 27.887 3.16349 30.8387 5.15624L31.531 3.21786C28.3462 1.18083 24.561 0 20.5 0C9.17816 0 0 9.17816 0 20.5C0 31.8218 9.17816 41 20.5 41C31.8218 41 41 31.8218 41 20.5C41 20.1505 40.9913 19.8031 40.974 19.4579L38.9342 18.9291Z" fill="white"/>
<path d="M34 5L43 7.8L41 17" stroke="white" stroke-width="2"/>
<path d="M30 14L43 8" stroke="white" stroke-width="2"/>
</svg>
