<svg width="32" height="41" viewBox="0 0 32 41" fill="none" xmlns="http://www.w3.org/2000/svg">
<path d="M0 20.5103C0 14.255 0 7.99975 0 1.74446C0 0.54708 0.536622 0.0103223 1.74402 0.0103223C9.73144 0.0103223 17.7189 0.0103223 25.7063 0C26.2945 0 26.7589 0.175478 27.182 0.598691C28.5648 2.00252 29.958 3.39602 31.3614 4.7792C31.7536 5.16113 31.929 5.59466 31.929 6.14174C31.9187 17.2175 31.929 28.2933 31.9187 39.3691C31.9187 40.4323 31.3408 41 30.2882 41C20.7425 41 11.1968 41 1.65115 41C0.567581 41 0 40.4323 0 39.3381C0 33.0725 0 26.7966 0 20.5103ZM25.634 1.34189C25.4896 1.34189 25.407 1.34189 25.3244 1.34189C17.4609 1.34189 9.59728 1.34189 1.7337 1.33157C1.3106 1.33157 1.32092 1.53802 1.32092 1.83736C1.32092 14.286 1.32092 26.745 1.32092 39.1936C1.32092 39.5858 1.42411 39.6994 1.82658 39.6994C11.2484 39.6891 20.6703 39.6891 30.0818 39.6994C30.5049 39.6994 30.6081 39.5962 30.6081 39.173C30.5978 28.3759 30.5978 17.5685 30.5978 6.7714C30.5978 6.62689 30.5978 6.47205 30.5978 6.29658C29.3904 6.29658 28.2243 6.29658 27.0478 6.29658C25.9952 6.29658 25.634 5.9353 25.634 4.89275C25.634 3.72633 25.634 2.5496 25.634 1.34189ZM29.4833 4.95468C28.6474 4.11858 27.8012 3.27216 26.9859 2.4567C26.9859 3.24119 26.9859 4.09794 26.9859 4.95468C27.8631 4.95468 28.699 4.95468 29.4833 4.95468Z" fill="white"/>
<path d="M9.33929 15.246C5.99572 15.246 3.31261 12.5519 3.30229 9.20745C3.30229 5.85272 6.01636 3.14829 9.37025 3.15861C12.7035 3.16893 15.3866 5.88369 15.3866 9.21777C15.3763 12.5622 12.6829 15.246 9.33929 15.246ZM9.34961 13.9247C11.9605 13.9247 14.0657 11.8087 14.0554 9.18681C14.0451 6.59592 11.9398 4.49018 9.34961 4.47986C6.74906 4.46954 4.63353 6.5856 4.63353 9.19713C4.63353 11.819 6.73874 13.9247 9.34961 13.9247Z" fill="white"/>
<path d="M22.9303 29.0778C22.9303 26.8482 22.9303 24.6186 22.9303 22.389C22.9303 21.5942 23.1057 21.4187 23.9003 21.4187C24.6846 21.4187 25.4689 21.4187 26.2532 21.4187C26.8518 21.4187 27.0891 21.6458 27.0891 22.2341C27.0891 26.7759 27.0891 31.3281 27.0891 35.8698C27.0891 36.4376 26.8518 36.675 26.2842 36.675C25.4483 36.6853 24.6021 36.6853 23.7662 36.675C23.147 36.6647 22.9303 36.4479 22.9303 35.8182C22.9303 33.5577 22.9303 31.3177 22.9303 29.0778ZM24.2822 22.7606C24.2822 26.9514 24.2822 31.1216 24.2822 35.3124C24.7878 35.3124 25.2728 35.3124 25.7579 35.3124C25.7579 31.1113 25.7579 26.9514 25.7579 22.7606C25.2625 22.7606 24.7878 22.7606 24.2822 22.7606Z" fill="white"/>
<path d="M22.7342 18.7762C22.4659 18.7762 22.3214 18.7865 22.1769 18.7762C21.7848 18.7452 21.5371 18.4665 21.5474 18.0949C21.5578 17.744 21.8054 17.4756 22.1769 17.4653C22.9303 17.4446 23.6939 17.4446 24.4473 17.4549C24.9013 17.4653 25.1696 17.8162 25.0871 18.2704C24.9736 18.9104 24.8394 19.54 24.7156 20.1697C24.6021 20.7477 24.3544 21.0058 23.9622 20.9748C23.5598 20.9335 23.374 20.6652 23.3534 20.0045C23.1264 20.211 22.92 20.3865 22.7239 20.5723C21.7022 21.5013 20.6806 22.4096 19.6796 23.3593C19.2874 23.7309 18.9263 23.8031 18.4206 23.576C16.7694 22.8328 15.0873 22.1412 13.4259 21.4084C13.1369 21.2845 12.9512 21.2948 12.6932 21.4909C10.9801 22.8122 9.25674 24.1128 7.53335 25.4237C7.46112 25.4857 7.37856 25.5476 7.296 25.5992C6.97609 25.816 6.60459 25.7644 6.38787 25.4857C6.15052 25.1863 6.21244 24.8044 6.53235 24.536C6.73874 24.3605 6.96577 24.2057 7.19281 24.0302C8.90587 22.7296 10.6189 21.4393 12.3217 20.1284C12.6932 19.8394 13.0234 19.7878 13.4568 19.9839C15.1286 20.7271 16.8107 21.429 18.4928 22.1619C18.7715 22.2858 18.9469 22.2445 19.1739 22.038C20.3091 20.9748 21.4752 19.922 22.7342 18.7762Z" fill="white"/>
<path d="M10.8563 30.8842C10.8563 29.2739 10.8563 27.6636 10.8563 26.0534C10.8563 25.3205 11.0524 25.1347 11.7954 25.1244C12.6106 25.1244 13.4156 25.1244 14.2308 25.1244C14.7777 25.1244 15.0254 25.3515 15.0254 25.8985C15.0357 29.2326 15.0357 32.5667 15.0254 35.9008C15.0254 36.4169 14.7777 36.6543 14.2618 36.6647C13.3949 36.675 12.5281 36.675 11.6612 36.6647C11.0936 36.6543 10.8666 36.4169 10.8666 35.8389C10.846 34.1976 10.8563 32.5461 10.8563 30.8842ZM12.1978 26.4766C12.1978 29.4391 12.1978 32.3603 12.1978 35.3124C12.7035 35.3124 13.1885 35.3124 13.6735 35.3124C13.6735 32.35 13.6735 29.4288 13.6735 26.4766C13.1782 26.4766 12.7035 26.4766 12.1978 26.4766Z" fill="white"/>
<path d="M16.8933 31.8338C16.8933 30.5848 16.8933 29.3255 16.8933 28.0765C16.8933 27.2198 17.0687 27.0443 17.9459 27.0443C18.6992 27.0443 19.4629 27.0443 20.2162 27.0443C20.8251 27.0443 21.0624 27.2817 21.0624 27.9011C21.0624 30.5436 21.0624 33.1861 21.0624 35.8286C21.0624 36.4272 20.8354 36.6543 20.2368 36.6647C19.401 36.675 18.5547 36.675 17.7189 36.6647C17.1203 36.6543 16.8933 36.4376 16.8933 35.8389C16.8933 34.5073 16.8933 33.1757 16.8933 31.8338ZM18.2348 28.3965C18.2348 30.719 18.2348 33.0106 18.2348 35.3124C18.7405 35.3124 19.2255 35.3124 19.7105 35.3124C19.7105 32.9899 19.7105 30.6984 19.7105 28.3965C19.2152 28.3965 18.7508 28.3965 18.2348 28.3965Z" fill="white"/>
<path d="M4.81928 33.2893C4.81928 32.4532 4.81928 31.6067 4.81928 30.7706C4.81928 30.141 5.03599 29.9242 5.65517 29.9139C6.5117 29.9139 7.35792 29.9036 8.21445 29.9139C8.74075 29.9139 8.9781 30.141 8.9781 30.6674C8.98842 32.4119 8.98842 34.1563 8.9781 35.9111C8.9781 36.4169 8.74075 36.6543 8.24541 36.6647C7.3476 36.675 6.46011 36.675 5.56229 36.6647C5.04631 36.6543 4.81928 36.4169 4.80896 35.8905C4.80896 35.0234 4.81928 34.1563 4.81928 33.2893ZM6.16084 31.2661C6.16084 32.6287 6.16084 33.9602 6.16084 35.3228C6.65618 35.3228 7.13088 35.3228 7.63655 35.3228C7.63655 33.9602 7.63655 32.6183 7.63655 31.2661C7.13088 31.2661 6.65618 31.2661 6.16084 31.2661Z" fill="white"/>
<path d="M20.6806 13.9449C20.6806 14.2029 20.6909 14.4712 20.6806 14.7292C20.6496 15.3793 20.2059 15.8437 19.5661 15.8746C19.0191 15.8953 18.4619 15.8953 17.9149 15.8746C17.2751 15.8437 16.8107 15.369 16.7901 14.7395C16.7694 14.2029 16.7694 13.6662 16.7901 13.1296C16.8107 12.4692 17.2854 12.0048 17.9562 11.9841C18.4825 11.9635 18.9985 11.9635 19.5248 11.9841C20.2265 12.0048 20.6599 12.4588 20.6909 13.1606C20.6909 13.4289 20.6909 13.6869 20.6806 13.9449ZM19.3494 13.336C18.9159 13.336 18.5238 13.336 18.1316 13.336C18.1316 13.7591 18.1316 14.1409 18.1316 14.5331C18.5547 14.5331 18.9572 14.5331 19.3494 14.5331C19.3494 14.1203 19.3494 13.7385 19.3494 13.336Z" fill="white"/>
<path d="M20.6806 9.24824C20.6806 9.52687 20.6909 9.79519 20.6806 10.0738C20.6496 10.7033 20.2059 11.1574 19.5764 11.178C19.0294 11.1987 18.4825 11.1987 17.9252 11.178C17.2751 11.1574 16.8107 10.693 16.7901 10.0532C16.7694 9.50624 16.7694 8.94897 16.7901 8.40203C16.821 7.76221 17.2957 7.30815 17.9356 7.28751C18.4722 7.27719 19.0088 7.27719 19.5454 7.28751C20.1852 7.30815 20.6393 7.77253 20.6806 8.41235C20.6909 8.69098 20.6806 8.96961 20.6806 9.24824ZM18.1316 8.62907C18.1316 9.06249 18.1316 9.45464 18.1316 9.84678C18.5547 9.84678 18.9469 9.84678 19.339 9.84678C19.339 9.42368 19.339 9.03153 19.339 8.62907C18.9262 8.62907 18.5444 8.62907 18.1316 8.62907Z" fill="white"/>
<path d="M24.9632 8.9697C24.1067 8.9697 23.2605 8.9697 22.404 8.9697C21.8983 8.9697 21.6094 8.73235 21.599 8.32989C21.5887 7.92742 21.8983 7.64879 22.404 7.64879C24.1067 7.63847 25.8095 7.63847 27.5225 7.64879C28.0179 7.64879 28.2965 7.90678 28.2965 8.30925C28.2965 8.71171 28.0179 8.95938 27.5225 8.95938C26.6763 8.98002 25.8198 8.9697 24.9632 8.9697Z" fill="white"/>
<path d="M24.9632 9.5068C25.8198 9.5068 26.666 9.5068 27.5225 9.5068C28.0179 9.5068 28.2965 9.75447 28.3068 10.1569C28.3068 10.5594 28.0179 10.8174 27.5328 10.8277C25.8095 10.838 24.0964 10.838 22.373 10.8277C21.8983 10.8277 21.599 10.5388 21.6094 10.1466C21.6197 9.76479 21.9086 9.51712 22.373 9.5068C23.2295 9.5068 24.0964 9.5068 24.9632 9.5068Z" fill="white"/>
<path d="M24.9632 13.6663C24.1067 13.6663 23.2605 13.6663 22.404 13.6663C21.9086 13.6663 21.6094 13.4187 21.599 13.0265C21.5887 12.6241 21.8983 12.3454 22.404 12.3454C24.1067 12.3454 25.8095 12.3454 27.5225 12.3454C28.0075 12.3454 28.2965 12.6034 28.2965 13.0059C28.2965 13.4083 28.0075 13.656 27.5225 13.656C26.6763 13.6663 25.8198 13.6663 24.9632 13.6663Z" fill="white"/>
<path d="M24.9633 15.5243C24.1686 15.5243 23.3637 15.5243 22.5691 15.5243C22.4556 15.5243 22.3524 15.5243 22.2389 15.514C21.8467 15.4624 21.5887 15.1838 21.6094 14.8329C21.63 14.4924 21.8777 14.2137 22.2595 14.2137C24.0654 14.2034 25.8611 14.2034 27.667 14.2137C28.0695 14.2137 28.3171 14.4924 28.3171 14.8639C28.3171 15.2251 28.0695 15.5037 27.6567 15.514C26.7486 15.5243 25.8507 15.514 24.9633 15.5243C24.9633 15.514 24.9633 15.514 24.9633 15.5243Z" fill="white"/>
<path d="M10.0307 5.97659C10.6808 6.17271 11.1762 6.55463 11.4755 7.17397C11.6715 7.58686 11.589 7.95846 11.2381 8.14426C10.8976 8.33006 10.5467 8.19587 10.3093 7.80363C9.98943 7.25655 9.40121 7.03978 8.87491 7.33912C8.68915 7.44235 8.5034 7.69008 8.48276 7.89653C8.47244 8.04104 8.69947 8.26813 8.87491 8.35071C9.17418 8.48489 9.51472 8.50554 9.82431 8.61908C10.2474 8.77392 10.7015 8.91843 11.0524 9.17649C12.0534 9.93001 11.9708 11.4061 10.9079 12.077C10.6499 12.2422 10.3403 12.3454 10.0513 12.4796C9.94815 13.037 9.75208 13.2641 9.34961 13.2538C8.95746 13.2435 8.75107 13.006 8.67883 12.4383C8.54468 12.3867 8.38988 12.3248 8.24541 12.2628C7.61591 11.9841 7.20312 11.5196 7.00705 10.8487C6.90385 10.4977 7.06897 10.1571 7.37855 10.0332C7.7191 9.89904 8.05965 10.0436 8.23509 10.4048C8.59627 11.1377 9.25673 11.3958 10.0101 11.0551C10.1855 10.9726 10.3919 10.7558 10.3919 10.601C10.4022 10.4358 10.2165 10.1881 10.0513 10.1055C9.73144 9.95066 9.37025 9.89904 9.0297 9.7855C8.72011 9.68228 8.38988 9.5997 8.10093 9.45519C7.44047 9.11455 7.09992 8.54683 7.13088 7.80363C7.16184 6.99849 7.59527 6.44109 8.32796 6.1211C8.54468 6.0282 8.67883 5.94562 8.70979 5.66692C8.74075 5.33661 8.99874 5.14048 9.34961 5.14048C9.67984 5.14048 9.88623 5.32628 9.97911 5.63595C10.0204 5.73917 10.0101 5.85272 10.0307 5.97659Z" fill="white"/>
</svg>
