<svg width="40" height="43" viewBox="0 0 40 43" fill="none" xmlns="http://www.w3.org/2000/svg">
<path d="M7.31107 33.4899L19.6034 19.5594" stroke="white" stroke-width="1.5" stroke-miterlimit="10"/>
<path d="M26.838 9.43309H24.0893V15.2934H26.838V9.43309Z" stroke="white" stroke-width="1.5" stroke-miterlimit="10"/>
<path d="M31.8077 3.42987H29.059V15.2934H31.8077V3.42987Z" stroke="white" stroke-width="1.5" stroke-miterlimit="10"/>
<path d="M36.7774 6.49745H34.0287V15.2934H36.7774V6.49745Z" stroke="white" stroke-width="1.5" stroke-miterlimit="10"/>
<path d="M29.103 42C32.4792 42 35.2161 39.263 35.2161 35.8868C35.2161 32.5106 32.4792 29.7737 29.103 29.7737C25.7268 29.7737 22.9898 32.5106 22.9898 35.8868C22.9898 39.263 25.7268 42 29.103 42Z" stroke="white" stroke-width="1.5" stroke-miterlimit="10"/>
<path d="M22.9898 35.8868C22.9898 32.5114 25.7275 29.7737 29.103 29.7737C30.8622 29.7737 32.4344 30.5213 33.5559 31.7088C36.3816 28.4543 38.1078 24.2102 38.1078 19.5594H19.6034V1C19.5814 1 19.5704 1 19.5484 1C9.31215 1 1 9.31215 1 19.5594C1 29.8067 9.31215 38.1188 19.5594 38.1188C20.8348 38.1188 22.0772 37.9869 23.2757 37.745C23.0888 37.1512 22.9898 36.5355 22.9898 35.8868Z" stroke="white" stroke-width="1.5" stroke-miterlimit="10"/>
<rect x="21.8903" y="14.1939" width="17.5918" height="2.19898" rx="1.09949" fill="white"/>
<path d="M27.8917 37.5396C27.7511 37.4127 27.7159 37.2994 27.7862 37.1998L27.9884 36.9127C28.0548 36.8189 28.1563 36.8287 28.293 36.942C28.3985 37.0299 28.5235 37.0973 28.668 37.1441C28.8145 37.1891 28.9405 37.2183 29.046 37.232V35.9928C28.8917 35.9361 28.7266 35.859 28.5509 35.7613C28.461 35.7105 28.3624 35.6314 28.255 35.524C28.1495 35.4146 28.0645 35.2887 28.0001 35.1461C27.9356 35.0035 27.9034 34.8267 27.9034 34.6158C27.9034 34.3385 27.9815 34.1109 28.1378 33.9332C28.294 33.7555 28.4405 33.6471 28.5772 33.608C28.7139 33.567 28.8702 33.5396 29.046 33.526V33.2271C29.046 33.11 29.0948 33.0514 29.1925 33.0514H29.4268C29.5245 33.0514 29.5733 33.11 29.5733 33.2271V33.526C29.7139 33.5435 29.8604 33.5826 30.0128 33.6432C30.1651 33.7037 30.2891 33.7691 30.3848 33.8394C30.4981 33.9234 30.5245 34.0113 30.4639 34.1031L30.2647 34.4078C30.1944 34.5133 30.1104 34.5211 30.0128 34.4312C29.9386 34.3629 29.8624 34.3121 29.7843 34.2789C29.7061 34.2457 29.6358 34.2203 29.5733 34.2027V35.3453C29.7354 35.4019 29.9014 35.4742 30.0714 35.5621C30.1964 35.6266 30.3038 35.7047 30.3936 35.7965C30.4835 35.8883 30.5587 36.0025 30.6192 36.1392C30.6817 36.276 30.713 36.4605 30.713 36.693C30.713 36.9527 30.6553 37.1695 30.5401 37.3433C30.4268 37.5172 30.293 37.6441 30.1387 37.7242C29.9845 37.8043 29.796 37.856 29.5733 37.8795V38.2252C29.5733 38.3424 29.5245 38.401 29.4268 38.401H29.1925C29.0948 38.401 29.046 38.3424 29.046 38.2252V37.8795C28.8468 37.8697 28.6358 37.8394 28.4132 37.7887C28.1925 37.7398 28.0186 37.6568 27.8917 37.5396ZM28.6534 34.61C28.6534 34.7506 28.6827 34.857 28.7413 34.9293C28.7999 35.0016 28.8604 35.0523 28.9229 35.0816C28.9561 35.0973 28.9971 35.1148 29.046 35.1344V34.1851C28.9386 34.2047 28.8458 34.2525 28.7677 34.3287C28.6915 34.4029 28.6534 34.4967 28.6534 34.61ZM29.5733 37.2232C29.6456 37.2017 29.7266 37.1578 29.8165 37.0914C29.9063 37.023 29.9512 36.8971 29.9512 36.7135C29.9512 36.5865 29.9307 36.4869 29.8897 36.4146C29.8507 36.3404 29.7784 36.2779 29.6729 36.2271C29.6417 36.2115 29.6085 36.1959 29.5733 36.1803V37.2232Z" fill="white"/>
<path d="M6.86855 14.5126C6.86855 14.0439 6.97011 13.6741 7.17323 13.4032C7.37896 13.1324 7.69016 12.997 8.10683 12.997C8.52349 12.997 8.83339 13.1324 9.03651 13.4032C9.24224 13.6741 9.34511 14.0439 9.34511 14.5126C9.34511 14.9814 9.24224 15.3511 9.03651 15.622C8.83339 15.8928 8.52349 16.0282 8.10683 16.0282C7.69016 16.0282 7.37896 15.8928 7.17323 15.622C6.97011 15.3511 6.86855 14.9814 6.86855 14.5126ZM7.65761 14.5126C7.65761 14.9032 7.69667 15.1662 7.7748 15.3017C7.85292 15.4345 7.9636 15.5009 8.10683 15.5009C8.25006 15.5009 8.36073 15.4345 8.43886 15.3017C8.51698 15.1662 8.55605 14.9032 8.55605 14.5126C8.55605 14.122 8.51698 13.8603 8.43886 13.7274C8.36073 13.592 8.25006 13.5243 8.10683 13.5243C7.9636 13.5243 7.85292 13.592 7.7748 13.7274C7.69667 13.8603 7.65761 14.122 7.65761 14.5126ZM7.75136 19.0087C7.64459 18.9332 7.63547 18.8316 7.72401 18.704L11.7123 13.0087C11.8034 12.8785 11.9024 12.8511 12.0092 12.9267L12.2826 13.1181C12.3894 13.1936 12.3985 13.2952 12.31 13.4228L8.32167 19.1181C8.23052 19.2483 8.13157 19.2756 8.0248 19.2001L7.75136 19.0087ZM10.6889 17.6142C10.6889 17.1454 10.7904 16.7756 10.9935 16.5048C11.1993 16.234 11.5105 16.0985 11.9271 16.0985C12.3438 16.0985 12.6537 16.234 12.8568 16.5048C13.0626 16.7756 13.1654 17.1454 13.1654 17.6142C13.1654 18.0829 13.0626 18.4527 12.8568 18.7235C12.6537 18.9944 12.3438 19.1298 11.9271 19.1298C11.5105 19.1298 11.1993 18.9944 10.9935 18.7235C10.7904 18.4527 10.6889 18.0829 10.6889 17.6142ZM11.4779 17.6142C11.4779 18.0048 11.517 18.2678 11.5951 18.4032C11.6732 18.536 11.7839 18.6024 11.9271 18.6024C12.0704 18.6024 12.181 18.536 12.2592 18.4032C12.3373 18.2678 12.3764 18.0048 12.3764 17.6142C12.3764 17.2235 12.3373 16.9618 12.2592 16.829C12.181 16.6936 12.0704 16.6259 11.9271 16.6259C11.7839 16.6259 11.6732 16.6936 11.5951 16.829C11.517 16.9618 11.4779 17.2235 11.4779 17.6142Z" fill="white"/>
</svg>
