<svg width="63" height="41" viewBox="0 0 63 41" fill="none" xmlns="http://www.w3.org/2000/svg">
<path d="M17.51 26.93V26.04H26V26.93H17.51ZM17.51 29.11V28.22H26V29.11H17.51ZM24.98 33.24C24.15 33.24 23.37 33.1 22.66 32.82C21.95 32.54 21.33 32.14 20.8 31.63C20.27 31.12 19.86 30.52 19.57 29.83C19.28 29.14 19.13 28.39 19.13 27.57C19.13 26.75 19.28 25.99 19.57 25.31C19.87 24.62 20.28 24.03 20.8 23.51C21.33 23 21.95 22.6 22.66 22.32C23.37 22.04 24.14 21.9 24.98 21.9C25.84 21.9 26.64 22.05 27.37 22.33C28.1 22.62 28.71 23.05 29.2 23.62L28.19 24.62C27.76 24.18 27.28 23.85 26.76 23.63C26.24 23.41 25.67 23.31 25.06 23.31C24.44 23.31 23.86 23.42 23.34 23.63C22.81 23.84 22.35 24.14 21.96 24.52C21.57 24.9 21.26 25.35 21.05 25.87C20.84 26.39 20.73 26.96 20.73 27.57C20.73 28.18 20.84 28.75 21.05 29.27C21.26 29.79 21.56 30.24 21.96 30.62C22.36 31 22.82 31.3 23.34 31.51C23.87 31.72 24.44 31.83 25.06 31.83C25.67 31.83 26.24 31.72 26.76 31.51C27.28 31.29 27.76 30.96 28.19 30.51L29.2 31.51C28.7 32.08 28.09 32.51 27.37 32.81C26.64 33.09 25.84 33.24 24.98 33.24Z" fill="white"/>
<path d="M23.67 41C16.41 41 10.5 35.09 10.5 27.83C10.5 20.57 16.41 14.66 23.67 14.66C30.93 14.66 36.84 20.57 36.84 27.83C36.84 35.09 30.93 41 23.67 41ZM23.67 16.57C17.46 16.57 12.41 21.62 12.41 27.83C12.41 34.04 17.46 39.09 23.67 39.09C29.88 39.09 34.93 34.04 34.93 27.83C34.93 21.62 29.87 16.57 23.67 16.57Z" fill="white"/>
<path d="M38.31 17.97C37.47 17.97 36.66 17.84 35.89 17.58C35.12 17.32 34.51 16.99 34.07 16.58L34.66 15.35C35.08 15.72 35.62 16.03 36.27 16.27C36.92 16.51 37.6 16.63 38.31 16.63C38.95 16.63 39.48 16.56 39.88 16.41C40.28 16.26 40.58 16.06 40.77 15.8C40.96 15.54 41.05 15.25 41.05 14.92C41.05 14.54 40.93 14.23 40.68 14C40.43 13.77 40.11 13.58 39.72 13.44C39.32 13.3 38.89 13.17 38.42 13.07C37.95 12.96 37.47 12.84 36.99 12.7C36.51 12.56 36.07 12.38 35.68 12.15C35.28 11.93 34.97 11.63 34.72 11.26C34.47 10.89 34.36 10.4 34.36 9.81C34.36 9.24 34.51 8.72 34.81 8.24C35.11 7.76 35.57 7.38 36.2 7.09C36.83 6.8 37.63 6.66 38.6 6.66C39.24 6.66 39.88 6.74 40.51 6.91C41.14 7.08 41.69 7.32 42.15 7.64L41.63 8.91C41.16 8.59 40.65 8.36 40.13 8.22C39.6 8.08 39.09 8.01 38.6 8.01C37.98 8.01 37.47 8.09 37.07 8.25C36.67 8.41 36.38 8.62 36.19 8.88C36.01 9.14 35.91 9.44 35.91 9.77C35.91 10.16 36.03 10.47 36.28 10.7C36.53 10.93 36.85 11.12 37.25 11.25C37.65 11.39 38.08 11.51 38.55 11.62C39.02 11.73 39.5 11.85 39.98 11.99C40.46 12.13 40.9 12.31 41.29 12.53C41.69 12.75 42 13.05 42.25 13.42C42.49 13.79 42.61 14.26 42.61 14.84C42.61 15.4 42.46 15.92 42.15 16.4C41.84 16.88 41.37 17.26 40.73 17.55C40.08 17.82 39.28 17.97 38.31 17.97ZM37.91 19.74V4.87H38.92V19.74H37.91Z" fill="white"/>
<path d="M38.33 26.33V24.42C44.54 24.42 49.59 19.37 49.59 13.16C49.59 6.95 44.54 1.9 38.33 1.9C32.12 1.9 27.07 6.96 27.07 13.17H25.16C25.17 5.91 31.07 0 38.33 0C45.59 0 51.5 5.91 51.5 13.17C51.5 20.43 45.59 26.33 38.33 26.33Z" fill="white"/>
<path d="M12.81 18.75L10.9 21.29V11.99H24.34V13.9H12.81V18.75Z" fill="white"/>
<path d="M8.22 37.85L0 29.86H3.64V4.73H27.1C27.1 4.73 26.67 5.46 26.52 5.7C26.38 5.93 25.97 6.63 25.97 6.63H5.54V31.76H4.7L8.22 35.18L10.73 32.73L11.48 34.68L8.22 37.85Z" fill="white"/>
<path d="M49.73 22.51L51.63 19.97V29.27H38.2V27.36H49.73V22.51Z" fill="white"/>
<path d="M54.31 3.41L62.53 11.4H58.9V36.53H35.44C35.44 36.53 35.87 35.8 36.02 35.56C36.16 35.33 36.57 34.63 36.57 34.63H56.99V9.5H57.83L54.31 6.08L51.8 8.53L51.05 6.58L54.31 3.41Z" fill="white"/>
</svg>
