<svg width="41" height="41" viewBox="0 0 41 41" fill="none" xmlns="http://www.w3.org/2000/svg">
<path d="M29.5028 5.78913L30.0845 7.55429C30.2582 8.10787 30.6159 8.58569 31.0991 8.90712L32.6078 9.88115C33.6256 10.5651 34.0288 11.8666 33.5753 13.0062L33.0071 14.4202C32.7539 15.0446 32.7539 15.7438 33.0071 16.3682L33.5688 17.721C34.0282 18.8358 33.6581 20.1199 32.676 20.819L31.3432 21.7795C30.8648 22.1237 30.5163 22.6194 30.3556 23.1865L29.9021 24.8369C29.5639 26.0285 28.4313 26.8158 27.1965 26.7173L25.776 26.5956C25.1083 26.5415 24.4454 26.7449 23.9226 27.1638L22.5698 28.2666C21.6158 29.0469 20.2435 29.0469 19.2889 28.2666L18.092 27.3261C17.6255 26.9414 17.0395 26.7309 16.4345 26.7309H14.3441C13.1293 26.7314 12.0773 25.8872 11.8143 24.7016L11.4426 23.1118C11.297 22.4743 10.915 21.9159 10.3738 21.549L9.13572 20.6897C8.15519 20.0219 7.75151 18.7752 8.15519 17.6594L8.73691 16.063C8.95011 15.4824 8.95011 14.8444 8.73691 14.2638L8.21634 12.8704C7.79047 11.7259 8.21472 10.4391 9.23799 9.77239L10.5908 8.88602C11.1211 8.54023 11.508 8.01371 11.6801 7.4044L12.093 5.92982C12.4307 4.73717 13.5627 3.94766 14.7986 4.0429L16.1044 4.15816C16.7721 4.21228 17.435 4.00881 17.9578 3.58998L19.1959 2.58888C20.1537 1.80371 21.5325 1.80371 22.4897 2.58888L23.6126 3.52233C24.131 3.95632 24.7987 4.17007 25.473 4.11758L26.8258 4.01639C28.019 3.91844 29.1256 4.65113 29.5028 5.78913Z" stroke="white" stroke-width="2"/>
<path d="M28.9481 26.3586L33.683 34.6178C33.8048 34.8278 33.683 35.0507 33.5272 34.9901L27.703 32.6227C27.6175 32.5956 27.526 32.6427 27.499 32.7277C27.4963 32.7353 27.4946 32.7434 27.4936 32.7509L26.7766 38.8387C26.736 39.0351 26.4925 39.008 26.3707 38.7981L20.8717 28.8478" stroke="white" stroke-width="2" stroke-linecap="round"/>
<path d="M20.8717 28.8478L15.7916 38.8251C15.6628 39.0351 15.4328 39.0621 15.3858 38.8728L14.5265 32.6498C14.5086 32.5621 14.4226 32.5053 14.3349 32.5231C14.3289 32.5242 14.3224 32.5258 14.3165 32.528L8.65573 34.9696C8.46634 35.0237 8.3646 34.8072 8.49339 34.5908L13.2283 26.3586" stroke="white" stroke-width="2" stroke-linecap="round"/>
<path d="M17.0357 20H18.0357C18.3117 20 18.5357 19.776 18.5357 19.5C18.5357 19.224 18.3117 19 18.0357 19H17.0357C16.7597 19 16.5357 19.224 16.5357 19.5C16.5357 19.776 16.7597 20 17.0357 20Z" fill="white"/>
<path d="M17.0357 18H19.0357C19.3117 18 19.5357 17.776 19.5357 17.5C19.5357 17.224 19.3117 17 19.0357 17H17.0357C16.7597 17 16.5357 17.224 16.5357 17.5C16.5357 17.776 16.7597 18 17.0357 18Z" fill="white"/>
<path d="M22.0357 12H20.0357V13.5H22.0357V12Z" fill="white"/>
<path d="M27.4781 11.2676L26.2593 8.829C26.0051 8.321 25.4857 8 24.9177 8H17.1537C16.5857 8 16.0663 8.321 15.8121 8.829L14.5933 11.2676C14.5563 11.337 14.5357 11.416 14.5357 11.5V20.5C14.5357 20.898 14.6937 21.2794 14.9751 21.5606C15.2561 21.842 15.6377 22 16.0357 22C18.2957 22 23.7757 22 26.0357 22C26.4337 22 26.8153 21.842 27.0963 21.5606C27.3777 21.2794 27.5357 20.898 27.5357 20.5C27.5357 17.9674 27.5357 11.5 27.5357 11.5C27.5357 11.416 27.5151 11.337 27.4781 11.2676ZM24.9177 9C25.1071 9 25.2801 9.107 25.3647 9.2766L26.2267 11H22.9591L22.6257 9H24.9177ZM20.4591 9H21.6121L21.9457 11H20.1257L20.4591 9ZM16.7067 9.2766C16.7913 9.107 16.9641 9 17.1537 9H19.4457L19.1121 11H15.8447L16.7067 9.2766ZM26.5357 20.5C26.5357 20.6326 26.4833 20.76 26.3893 20.8534C26.2957 20.9474 26.1683 21 26.0357 21H16.0357C15.9031 21 15.7757 20.9474 15.6823 20.8534C15.5881 20.76 15.5357 20.6326 15.5357 20.5V12H19.0357V13.5C19.0357 13.765 19.1411 14.0196 19.3287 14.207C19.5163 14.3944 19.7707 14.5 20.0357 14.5C20.5907 14.5 21.4807 14.5 22.0357 14.5C22.3007 14.5 22.5553 14.3946 22.7427 14.207C22.9301 14.0194 23.0357 13.765 23.0357 13.5V12H26.5357V20.5Z" fill="white"/>
</svg>
