<svg width="46" height="41" viewBox="0 0 46 41" fill="none" xmlns="http://www.w3.org/2000/svg">
<path d="M7.32145 35.1429H10.25C11.0583 35.1429 11.7143 34.4869 11.7143 33.6786C11.7143 32.8703 11.0583 32.2143 10.25 32.2143H7.32145C6.51316 32.2143 5.85716 32.8703 5.85716 33.6786C5.85716 34.4869 6.51316 35.1429 7.32145 35.1429Z" fill="white"/>
<path d="M7.32145 29.2857H13.1786C13.9869 29.2857 14.6429 28.6297 14.6429 27.8214C14.6429 27.0131 13.9869 26.3571 13.1786 26.3571H7.32145C6.51316 26.3571 5.85716 27.0131 5.85716 27.8214C5.85716 28.6297 6.51316 29.2857 7.32145 29.2857Z" fill="white"/>
<path d="M21.9643 11.7143H16.1072V16.1071H21.9643V11.7143Z" fill="white"/>
<path fill-rule="evenodd" clip-rule="evenodd" d="M34.3334 2.42779L37.9027 9.5694C38.0111 9.77264 38.0714 10.004 38.0714 10.25V15.0567C37.7194 15.0192 37.362 15 37 15C36.3654 15 35.7446 15.0591 35.1429 15.1721V11.7143H24.8929V16.1071C24.8929 16.8832 24.5836 17.6282 24.0348 18.1776C23.486 18.727 22.7404 19.0357 21.9643 19.0357H16.1071C15.3311 19.0357 14.586 18.7265 14.0366 18.1776C13.4872 17.6288 13.1786 16.8832 13.1786 16.1071V11.7143H2.92857V36.6071C2.92857 36.9955 3.08203 37.3686 3.3579 37.6421C3.63143 37.9174 4.00453 38.0714 4.39286 38.0714H33.6786C34.0669 38.0714 34.44 37.9174 34.7141 37.6421C34.9894 37.3686 35.1429 36.9955 35.1429 36.6071V34.8279C35.7446 34.9409 36.3654 35 37 35C37.362 35 37.7194 34.9808 38.0714 34.9433V36.6071C38.0714 37.7727 37.6087 38.8897 36.7846 39.7132C35.9617 40.5373 34.8441 41 33.6786 41H4.39286C3.22729 41 2.10974 40.5373 1.28681 39.7132C0.462714 38.8897 0 37.7727 0 36.6071V10.25C0 10.004 0.0603286 9.77264 0.168686 9.5694L3.73803 2.42779C4.48247 0.940071 6.00357 0 7.667 0H30.4044C32.0679 0 33.589 0.940071 34.3334 2.42779ZM31.7135 3.73861C31.4657 3.24193 30.9591 2.92857 30.4044 2.92857H23.6921L24.6685 8.78571H34.2379L31.7135 3.73861ZM20.7237 2.92857H17.3471L16.3707 8.78571H21.7007L20.7237 2.92857ZM7.667 2.92857C7.11174 2.92857 6.60569 3.24193 6.35793 3.73861L3.8335 8.78571H13.4023L14.3793 2.92857H7.667Z" fill="white"/>
<circle cx="37" cy="25" r="8" stroke="white" stroke-width="2"/>
<mask id="path-6-outside-1_11_161" maskUnits="userSpaceOnUse" x="33" y="21" width="8" height="8" fill="black">
<rect fill="white" x="33" y="21" width="8" height="8"/>
<path d="M34.6484 28C34.3984 28 34.349 27.888 34.5 27.6641L36.2305 25.1094L34.6406 22.7344C34.4896 22.5104 34.5391 22.3984 34.7891 22.3984H35.5781C35.7161 22.3984 35.8333 22.4753 35.9297 22.6289L36.9961 24.3164L38.0625 22.6289C38.1589 22.4753 38.276 22.3984 38.4141 22.3984H39.2031C39.4531 22.3984 39.5026 22.5104 39.3516 22.7344L37.7578 25.1094L39.4922 27.6641C39.6432 27.888 39.5938 28 39.3438 28H38.543C38.4076 28 38.2904 27.9232 38.1914 27.7695L36.9961 25.9023L35.8008 27.7695C35.7018 27.9232 35.5846 28 35.4492 28H34.6484Z"/>
</mask>
<path d="M34.6484 28C34.3984 28 34.349 27.888 34.5 27.6641L36.2305 25.1094L34.6406 22.7344C34.4896 22.5104 34.5391 22.3984 34.7891 22.3984H35.5781C35.7161 22.3984 35.8333 22.4753 35.9297 22.6289L36.9961 24.3164L38.0625 22.6289C38.1589 22.4753 38.276 22.3984 38.4141 22.3984H39.2031C39.4531 22.3984 39.5026 22.5104 39.3516 22.7344L37.7578 25.1094L39.4922 27.6641C39.6432 27.888 39.5938 28 39.3438 28H38.543C38.4076 28 38.2904 27.9232 38.1914 27.7695L36.9961 25.9023L35.8008 27.7695C35.7018 27.9232 35.5846 28 35.4492 28H34.6484Z" fill="white"/>
<path d="M34.5 27.6641L34.086 27.3837L34.0855 27.3845L34.5 27.6641ZM36.2305 25.1094L36.6444 25.3898L36.8333 25.111L36.646 24.8312L36.2305 25.1094ZM34.6406 22.7344L35.0561 22.4562L35.0552 22.4548L34.6406 22.7344ZM35.9297 22.6289L35.5061 22.8946L35.507 22.896L35.9297 22.6289ZM36.9961 24.3164L36.5734 24.5835L36.9961 25.2524L37.4188 24.5835L36.9961 24.3164ZM38.0625 22.6289L38.4852 22.896L38.4861 22.8946L38.0625 22.6289ZM39.3516 22.7344L38.937 22.4548L38.9364 22.4558L39.3516 22.7344ZM37.7578 25.1094L37.3426 24.8308L37.1546 25.111L37.3441 25.3902L37.7578 25.1094ZM39.4922 27.6641L39.9067 27.3845L39.9059 27.3832L39.4922 27.6641ZM38.1914 27.7695L37.7703 28.0391L37.771 28.0403L38.1914 27.7695ZM36.9961 25.9023L37.4172 25.6328L36.9961 24.975L36.575 25.6328L36.9961 25.9023ZM35.8008 27.7695L36.2211 28.0403L36.2219 28.0391L35.8008 27.7695ZM34.6484 27.5C34.6159 27.5 34.6326 27.4953 34.6737 27.5107C34.722 27.5288 34.8239 27.5844 34.8812 27.7139C34.9343 27.8343 34.9101 27.9321 34.9029 27.9557C34.8955 27.9801 34.8914 27.9779 34.9145 27.9436L34.0855 27.3845C34.0331 27.4622 33.9785 27.5579 33.9457 27.6663C33.9132 27.774 33.8886 27.9418 33.9665 28.1181C34.0485 28.3037 34.2002 28.4013 34.3234 28.4473C34.4393 28.4907 34.556 28.5 34.6484 28.5V27.5ZM34.914 27.9445L36.6444 25.3898L35.8165 24.829L34.086 27.3837L34.914 27.9445ZM36.646 24.8312L35.0561 22.4562L34.2251 23.0125L35.815 25.3875L36.646 24.8312ZM35.0552 22.4548C35.032 22.4205 35.0362 22.4183 35.0435 22.4427C35.0507 22.4663 35.075 22.5642 35.0218 22.6845C34.9645 22.8141 34.8626 22.8697 34.8143 22.8878C34.7733 22.9031 34.7565 22.8984 34.7891 22.8984V21.8984C34.6966 21.8984 34.5799 21.9078 34.464 21.9511C34.3408 21.9972 34.1891 22.0948 34.1071 22.2803C34.0292 22.4567 34.0538 22.6245 34.0863 22.7321C34.1191 22.8405 34.1737 22.9363 34.2261 23.0139L35.0552 22.4548ZM34.7891 22.8984H35.5781V21.8984H34.7891V22.8984ZM35.5781 22.8984C35.5656 22.8984 35.5501 22.8966 35.5336 22.8916C35.5172 22.8867 35.5042 22.88 35.4954 22.8742C35.4788 22.8633 35.4854 22.8615 35.5061 22.8946L36.3533 22.3633C36.1978 22.1154 35.9414 21.8984 35.5781 21.8984V22.8984ZM35.507 22.896L36.5734 24.5835L37.4188 24.0493L36.3524 22.3618L35.507 22.896ZM37.4188 24.5835L38.4852 22.896L37.6398 22.3618L36.5734 24.0493L37.4188 24.5835ZM38.4861 22.8946C38.5068 22.8615 38.5134 22.8633 38.4968 22.8742C38.488 22.88 38.475 22.8867 38.4586 22.8916C38.4421 22.8966 38.4266 22.8984 38.4141 22.8984V21.8984C38.0507 21.8984 37.7943 22.1154 37.6389 22.3633L38.4861 22.8946ZM38.4141 22.8984H39.2031V21.8984H38.4141V22.8984ZM39.2031 22.8984C39.2357 22.8984 39.2189 22.9031 39.1779 22.8878C39.1295 22.8697 39.0276 22.8141 38.9704 22.6845C38.9172 22.5642 38.9415 22.4663 38.9486 22.4427C38.956 22.4183 38.9602 22.4205 38.937 22.4548L39.7661 23.0139C39.8185 22.9363 39.8731 22.8405 39.9059 22.7321C39.9384 22.6245 39.963 22.4567 39.8851 22.2803C39.8031 22.0948 39.6514 21.9972 39.5281 21.9511C39.4123 21.9078 39.2955 21.8984 39.2031 21.8984V22.8984ZM38.9364 22.4558L37.3426 24.8308L38.173 25.388L39.7667 23.013L38.9364 22.4558ZM37.3441 25.3902L39.0785 27.9449L39.9059 27.3832L38.1715 24.8285L37.3441 25.3902ZM39.0777 27.9436C39.1008 27.9779 39.0966 27.9801 39.0893 27.9557C39.0821 27.9321 39.0578 27.8343 39.111 27.7139C39.1683 27.5844 39.2702 27.5288 39.3185 27.5107C39.3596 27.4953 39.3763 27.5 39.3438 27.5V28.5C39.4362 28.5 39.5529 28.4907 39.6688 28.4473C39.792 28.4013 39.9437 28.3037 40.0257 28.1181C40.1036 27.9418 40.079 27.774 40.0465 27.6663C40.0137 27.5579 39.9591 27.4622 39.9067 27.3845L39.0777 27.9436ZM39.3438 27.5H38.543V28.5H39.3438V27.5ZM38.543 27.5C38.5571 27.5 38.5735 27.5021 38.5903 27.5072C38.607 27.5123 38.6196 27.5189 38.6276 27.5242C38.6425 27.534 38.6344 27.5339 38.6118 27.4988L37.771 28.0403C37.9263 28.2813 38.1807 28.5 38.543 28.5V27.5ZM38.6125 27.5L37.4172 25.6328L36.575 26.1719L37.7703 28.0391L38.6125 27.5ZM36.575 25.6328L35.3797 27.5L36.2219 28.0391L37.4172 26.1719L36.575 25.6328ZM35.3804 27.4988C35.3578 27.5339 35.3497 27.534 35.3645 27.5242C35.3726 27.5189 35.3852 27.5123 35.4019 27.5072C35.4187 27.5021 35.4351 27.5 35.4492 27.5V28.5C35.8115 28.5 36.0659 28.2813 36.2211 28.0403L35.3804 27.4988ZM35.4492 27.5H34.6484V28.5H35.4492V27.5Z" fill="white" mask="url(#path-6-outside-1_11_161)"/>
</svg>
